<svg xmlns="http://www.w3.org/2000/svg" viewBox="0 0 245.09 71.06"><defs><style>.cls-1{fill:#eb5c01;stroke:#eb5c01;stroke-width:1.5px;}</style></defs><g id="레이어_2" data-name="레이어 2"><g id="레이어_1-2" data-name="레이어 1"><path class="cls-1" d="M2.61,23.85H34.05q.24-1.74.36-3.72t.18-4.08q.06-2,.06-4.2V7.59H12.87A1.7,1.7,0,0,1,11.49,7,2,2,0,0,1,11,5.67a1.7,1.7,0,0,1,.48-1.14A1.75,1.75,0,0,1,12.87,4H36.69a2.22,2.22,0,0,1,2.1.93,3.73,3.73,0,0,1,.54,1.89,82.56,82.56,0,0,1-.48,8.88,44,44,0,0,1-1.62,8.16h12.3a1.66,1.66,0,0,1,1.38.6,2,2,0,0,1,.48,1.26,1.73,1.73,0,0,1-.48,1.23,1.8,1.8,0,0,1-1.38.51H28.23v8.46a2.15,2.15,0,0,1,1.32,1.53,5.17,5.17,0,0,1,.06,2.07,15.74,15.74,0,0,1-.63,2q-.39,1-.87,1.95l13.38,9.12a4.06,4.06,0,0,1,1,1.17,2.28,2.28,0,0,1,.3,1,3.36,3.36,0,0,1-.48,1.53,1.78,1.78,0,0,1-.9.69,2.86,2.86,0,0,1-1.11.18,2,2,0,0,1-1.23-.42l-13-10.26A34.16,34.16,0,0,1,23,50.13a43,43,0,0,1-3.54,3.18,33.94,33.94,0,0,1-3.66,2.49,14,14,0,0,1-3.36,1.47,1.91,1.91,0,0,1-1.29,0,1.26,1.26,0,0,1-.69-.57,1,1,0,0,1-.06-.87,1.51,1.51,0,0,1,.84-.75A18.25,18.25,0,0,0,15,52.56a34.59,34.59,0,0,0,4.05-4A35.1,35.1,0,0,0,22.41,44a14.09,14.09,0,0,0,1.86-4.26.83.83,0,0,0-.21-.87,5.23,5.23,0,0,0-1.95-.51A2.35,2.35,0,0,1,21,38a1.07,1.07,0,0,1-.45-1,1.4,1.4,0,0,1,.36-1,2,2,0,0,1,1.44-.39h1.56V27.45H2.61a1.75,1.75,0,0,1-1.38-.54,1.84,1.84,0,0,1-.48-1.26,1.87,1.87,0,0,1,.48-1.23A1.7,1.7,0,0,1,2.61,23.85Z"/><path class="cls-1" d="M82.7,24.8H72.14V37.16H93.38a1.63,1.63,0,0,1,1.38.63A2,2,0,0,1,95.24,39a2,2,0,0,1-.48,1.29,1.7,1.7,0,0,1-1.38.57H46.46a1.66,1.66,0,0,1-1.38-.6,2.07,2.07,0,0,1-.48-1.32,1.86,1.86,0,0,1,.48-1.14,1.66,1.66,0,0,1,1.38-.6H67.82V24.8H60.26a3.31,3.31,0,0,1-.75,1.11,1.49,1.49,0,0,1-1,.51H57V7.16a3.49,3.49,0,0,0-.42-2.1A3.44,3.44,0,0,0,55,4.22a3.35,3.35,0,0,1-1.23-.51,1.21,1.21,0,0,1-.45-1,1.09,1.09,0,0,1,.51-1,2.65,2.65,0,0,1,1.35-.3H81a1.62,1.62,0,0,1,1.53.78,3,3,0,0,1,.45,1.5v13.5a20.68,20.68,0,0,1-.12,2.43,7.41,7.41,0,0,1-.42,1.77h.36a1.06,1.06,0,0,1,1,.6,2.37,2.37,0,0,1,.33,1.14,2.12,2.12,0,0,1-.36,1.2A1.16,1.16,0,0,1,82.7,24.8ZM78.5,5H61.4V19.64a3.19,3.19,0,0,1,0,.45,4.47,4.47,0,0,1-.09.45,2.23,2.23,0,0,0-.09.39,2.48,2.48,0,0,0,0,.33H78.5Z"/><path class="cls-1" d="M100.23,37.31V25.49a4.29,4.29,0,0,0-.39-2.1,2.42,2.42,0,0,0-1.59-1A4.9,4.9,0,0,1,96.81,22a1,1,0,0,1-.48-1q0-.9.51-1.14a2.87,2.87,0,0,1,1.23-.24h4.32a1.87,1.87,0,0,1,1.62.87,3.36,3.36,0,0,1,.6,1.95V37.19a2.42,2.42,0,0,0,.21,1.08q.21.42.93.42h18.9a1.63,1.63,0,0,1,1.38.63,2,2,0,0,1,.48,1.23,1.63,1.63,0,0,1-.48,1.2,1.87,1.87,0,0,1-1.38.48H106.17a9.86,9.86,0,0,1-4.5-.78Q100.23,40.67,100.23,37.31Zm13.86,21.24a11.37,11.37,0,0,1,.9-4.47,11.24,11.24,0,0,1,2.58-3.75,12.66,12.66,0,0,1,3.84-2.61,11.8,11.8,0,0,1,4.86-1,11.65,11.65,0,0,1,4.8,1,13.47,13.47,0,0,1,3.9,2.61,12.54,12.54,0,0,1,2.58,3.75,10.89,10.89,0,0,1,0,8.94A12.54,12.54,0,0,1,135,66.77a13,13,0,0,1-3.9,2.58,12.48,12.48,0,0,1-9.6,0,13,13,0,0,1-3.9-2.58A12.1,12.1,0,0,1,115,63,11.05,11.05,0,0,1,114.09,58.55Zm4.5,0a8.29,8.29,0,0,0,2.22,5.64A7.87,7.87,0,0,0,123.27,66a7.39,7.39,0,0,0,6,0,7.77,7.77,0,0,0,2.49-1.77,8,8,0,0,0,1.71-2.55,7.76,7.76,0,0,0,.63-3.09,7.62,7.62,0,0,0-.63-3,8.81,8.81,0,0,0-1.71-2.61,9.23,9.23,0,0,0-2.49-1.77,6.8,6.8,0,0,0-6,0,9.4,9.4,0,0,0-2.46,1.77,9,9,0,0,0-1.62,2.61A8,8,0,0,0,118.59,58.55Zm21.3-42.42V40a7.44,7.44,0,0,1-.93,4.17,2.78,2.78,0,0,1-2.37,1.35h-1.14v-26a2.66,2.66,0,0,0-.87-2.37,6.77,6.77,0,0,0-2.37-.87,4.57,4.57,0,0,1-1.8-.54,1.06,1.06,0,0,1-.54-.9,1.11,1.11,0,0,1,.6-1.05,2.82,2.82,0,0,1,1.38-.33h5.64a2.16,2.16,0,0,1,1.71.81A2.83,2.83,0,0,1,139.89,16.13Z"/><path class="cls-1" d="M146.28,6.51H171.6a1.2,1.2,0,0,1,1.05.6A2.11,2.11,0,0,1,173,8.25a2.72,2.72,0,0,1-.33,1.2,1.1,1.1,0,0,1-1.05.66h-4.5V24.45h4.62a1.29,1.29,0,0,1,1.17.63,2.19,2.19,0,0,1,.39,1.11,2.64,2.64,0,0,1-.36,1.26,1.21,1.21,0,0,1-1.14.66H146.1a1.14,1.14,0,0,1-1.14-.63,2.85,2.85,0,0,1-.3-1.23,2.64,2.64,0,0,1,.33-1.14,1.19,1.19,0,0,1,1.17-.66h5V18.69a4,4,0,0,0-.51-2.31,2.58,2.58,0,0,0-1.59-.93l-.81-.12a3.15,3.15,0,0,1-.69-.18,1.09,1.09,0,0,1-.48-.36,1.19,1.19,0,0,1-.18-.72,1,1,0,0,1,.51-1,3,3,0,0,1,1.41-.3h4.26a2.27,2.27,0,0,1,1.8.75,2.84,2.84,0,0,1,.66,1.95v9h7.26V10.11H146.22a1.28,1.28,0,0,1-1.23-.6,2.37,2.37,0,0,1-.33-1.14,2.55,2.55,0,0,1,.36-1.2A1.31,1.31,0,0,1,146.28,6.51ZM185.4,56.79H164.16a2.43,2.43,0,0,1-2.4,1.56h-1v-18a2.91,2.91,0,0,0-.48-2,3.52,3.52,0,0,0-1.74-.81,2.27,2.27,0,0,1-1.32-.54,1.36,1.36,0,0,1-.3-.9,1,1,0,0,1,.48-.93,2.86,2.86,0,0,1,1.38-.27H163a2,2,0,0,1,1.56.66,2.58,2.58,0,0,1,.6,1.8v5.34h16.14v-4.2q0-1.44-.48-1.8a4.88,4.88,0,0,0-1.56-.66,2.76,2.76,0,0,1-1.47-.57,1.27,1.27,0,0,1-.39-.93,1,1,0,0,1,.48-.93,2.86,2.86,0,0,1,1.38-.27h4.08A2.31,2.31,0,0,1,185,34a2.57,2.57,0,0,1,.63,1.89V49.23a18.69,18.69,0,0,1-.12,2.28,5.17,5.17,0,0,1-.48,1.68h.36a1.17,1.17,0,0,1,1.08.63,2.47,2.47,0,0,1,.36,1.23,2.17,2.17,0,0,1-.36,1.17A1.19,1.19,0,0,1,185.4,56.79ZM165.12,46.41v6.72h16.14V46.41Zm21.78-43V14.31h9.78a1.42,1.42,0,0,1,1.08.54,1.92,1.92,0,0,1,.48,1.32,1.89,1.89,0,0,1-.48,1.35,1.4,1.4,0,0,1-1,.51H186.9v6.9a7.55,7.55,0,0,1-.93,4.26,2.8,2.8,0,0,1-2.37,1.32h-1.14V6.81a2.71,2.71,0,0,0-.84-2.37,6.44,6.44,0,0,0-2.34-.87,4.57,4.57,0,0,1-1.8-.54,1.1,1.1,0,0,1-.54-1,1.07,1.07,0,0,1,.57-1,2.65,2.65,0,0,1,1.35-.33h5.7a2.07,2.07,0,0,1,1.68.81A2.9,2.9,0,0,1,186.9,3.45Z"/><path class="cls-1" d="M195.56,37.61h46.92a1.66,1.66,0,0,1,1.38.6,1.92,1.92,0,0,1,.48,1.2,2,2,0,0,1-.48,1.29,1.7,1.7,0,0,1-1.38.57H195.56a1.66,1.66,0,0,1-1.38-.6,2.07,2.07,0,0,1-.48-1.32,1.83,1.83,0,0,1,.48-1.17A1.7,1.7,0,0,1,195.56,37.61ZM222.08,6.17a19.18,19.18,0,0,1-.9,3.15,21.48,21.48,0,0,1-1.5,3.15l15,10a2.59,2.59,0,0,1,1,1.29,4.21,4.21,0,0,1,.24,1.17,3,3,0,0,1-.48,1.29,1.78,1.78,0,0,1-.9.69,2.55,2.55,0,0,1-1.5,0,2.89,2.89,0,0,1-1.32-.75L217.52,15.59a44.3,44.3,0,0,1-3.36,3.9,40.39,40.39,0,0,1-3.66,3.36,38.68,38.68,0,0,1-3.78,2.73,24.35,24.35,0,0,1-3.42,1.83,1.5,1.5,0,0,1-1.17.12,1.34,1.34,0,0,1-.75-.6,1.61,1.61,0,0,1-.09-.93,1.3,1.3,0,0,1,.75-.87,27.77,27.77,0,0,0,4.53-3.42,40.3,40.3,0,0,0,4.29-4.56A35.43,35.43,0,0,0,214.31,12a20.8,20.8,0,0,0,2.07-5.19,1.07,1.07,0,0,0-.57-1.29,7.5,7.5,0,0,0-2.07-.63,1.24,1.24,0,0,1-1-.54,1.44,1.44,0,0,1-.24-1,1.17,1.17,0,0,1,.39-.9,1.88,1.88,0,0,1,1.29-.36H219a2.81,2.81,0,0,1,2.67,1.2A4.26,4.26,0,0,1,222.08,6.17Z"/></g></g></svg>