<svg xmlns="http://www.w3.org/2000/svg" xmlns:xlink="http://www.w3.org/1999/xlink" viewBox="0 0 258.56 49.08"><defs><style>.cls-1{fill:url(#linear-gradient);}.cls-2{fill:url(#linear-gradient-2);}.cls-3{fill:url(#linear-gradient-3);}.cls-4{fill:url(#New_Gradient_Swatch_1);}.cls-5{fill:url(#linear-gradient-4);}.cls-6{fill:url(#linear-gradient-5);}.cls-7{fill:#231815;}</style><linearGradient id="linear-gradient" x1="60.73" y1="71.24" x2="60.73" y2="19.5" gradientUnits="userSpaceOnUse"><stop offset="0" stop-color="#e60012"/><stop offset="1" stop-color="#ae0e16"/></linearGradient><linearGradient id="linear-gradient-2" x1="46.16" y1="25.3" x2="29.38" y2="11.21" gradientUnits="userSpaceOnUse"><stop offset="0" stop-color="#eb6100"/><stop offset="1" stop-color="#f5a200"/></linearGradient><linearGradient id="linear-gradient-3" x1="39.77" y1="39.89" x2="27.58" y2="29.67" gradientUnits="userSpaceOnUse"><stop offset="0" stop-color="#ca0915"/><stop offset="1" stop-color="#9f0810"/></linearGradient><linearGradient id="New_Gradient_Swatch_1" x1="67.5" y1="51.25" x2="30.27" y2="19.49" gradientUnits="userSpaceOnUse"><stop offset="0" stop-color="#eb613b"/><stop offset="0.52" stop-color="#e60012"/><stop offset="1" stop-color="#ae0e16"/></linearGradient><linearGradient id="linear-gradient-4" x1="4.21" y1="36.39" x2="4.21" y2="-1.72" gradientUnits="userSpaceOnUse"><stop offset="0" stop-color="#f08300"/><stop offset="1" stop-color="#fdd000"/></linearGradient><linearGradient id="linear-gradient-5" x1="40.71" y1="35.41" x2="3.58" y2="4.26" gradientUnits="userSpaceOnUse"><stop offset="0" stop-color="#f08300"/><stop offset="1" stop-color="#ffe100"/></linearGradient></defs><g id="레이어_2" data-name="레이어 2"><g id="_레이어_" data-name="&lt;레이어&gt;"><path class="cls-1" d="M62.79,47.46,58.9,48.87l-1.1.2-.56-32,1.32.13,4,1.3c1.45.47,1.62,1.36,1.62,2.52V45.15A2.24,2.24,0,0,1,62.79,47.46Z"/><rect class="cls-2" x="37.54" y="8.71" width="3.01" height="21.21"/><rect class="cls-3" x="30.74" y="23.89" width="2.39" height="18.86"/><path class="cls-4" d="M56.74,17.06,29,21.49a1.84,1.84,0,0,0-1.66,1.93V43c0,.83.55,1.28,1.47,1.46l28,4.5c1.83.3,3.37-.08,3.37-2.51v-27C60.11,17.66,58.94,16.79,56.74,17.06ZM31,24.84l23.32-2.57V43.78L31,41.2Z"/><path class="cls-5" d="M1.71,36.79l4.7,1.7,1.33.25L8.42,0,6.82.17,2,1.74C.2,2.31,0,3.39,0,4.79V34A2.69,2.69,0,0,0,1.71,36.79Z"/><path class="cls-6" d="M40.11,23.84v5.38L12,32.33v-26l28.16,3.1V19.72L44.54,19V7.75a2.33,2.33,0,0,0-2-2.33L9,.06C6.33-.27,4.91.79,4.91,3V35.59c0,2.94,1.86,3.39,4.08,3l34-5.44c1.11-.23,1.54-.76,1.54-1.76V23.34Z"/><path class="cls-7" d="M88.54,26a6.12,6.12,0,0,0,2.26-3.55,7.44,7.44,0,0,0-.47-4.58,5.54,5.54,0,0,0-3.5-3h3.88V11.61H86.07V9.23H81.36v2.38H76.54v3.25h3.84a5.7,5.7,0,0,0-3.37,3,7,7,0,0,0-.45,4.45,6.28,6.28,0,0,0,2.19,3.62,7.35,7.35,0,0,0,4.86,1.64A7.71,7.71,0,0,0,88.54,26Zm-7.38-2.82a4.11,4.11,0,0,1-.81-2.59A4,4,0,0,1,81.16,18a3,3,0,0,1,2.45-1.11A3.13,3.13,0,0,1,86.18,18,4.13,4.13,0,0,1,87,20.68a3.59,3.59,0,0,1-.91,2.49,3.17,3.17,0,0,1-2.52,1.1A3,3,0,0,1,81.16,23.14Zm4.63,11.44V29.26H81.22v6.49a3.17,3.17,0,0,0,.8,2.32,3,3,0,0,0,2.17.74h16V35.47H86.66A.81.81,0,0,1,85.79,34.58Zm14.27-16.13V9.26H95.48V31h4.57V22h3.15V18.45Z"/><path class="cls-7" d="M158.59,25.67a8.08,8.08,0,0,0-6.18-.08,7.31,7.31,0,0,0-3.71,3.53,7,7,0,0,0-.45,4.45,6.25,6.25,0,0,0,2.19,3.62,7.34,7.34,0,0,0,4.85,1.64,7.66,7.66,0,0,0,4.94-1.58,6.14,6.14,0,0,0,2.26-3.55,7.51,7.51,0,0,0-.47-4.58A6.9,6.9,0,0,0,158.59,25.67Zm-.77,8.79a3.14,3.14,0,0,1-2.52,1.11,3,3,0,0,1-2.45-1.14,4.11,4.11,0,0,1-.81-2.59,4,4,0,0,1,.81-2.58,3,3,0,0,1,2.45-1.11,3.13,3.13,0,0,1,2.57,1.17,4.13,4.13,0,0,1,.86,2.65A3.59,3.59,0,0,1,157.82,34.46Zm4.91-19.12V9.21h-4.57V25h4.57v-6.2h3.13V15.34Zm-9.49,7.86a3.77,3.77,0,0,0,1-2.35V9.46h-4.53V13.3h-6.43V9.46h-4.53v11.4a3.2,3.2,0,0,0,.92,2.54,4.66,4.66,0,0,0,3,.77h7.59A4.26,4.26,0,0,0,153.24,23.2Zm-3.57-3.62a1.22,1.22,0,0,1-1.3,1.3h-3.91c-.93,0-1.22-.52-1.22-1.31v-3h6.43Z"/><path class="cls-7" d="M178.31,17.76a8.3,8.3,0,0,0,3.95-3.21,9.52,9.52,0,0,0,4.21,3.21A27.8,27.8,0,0,0,191,19.33L193.79,17a22.88,22.88,0,0,1-5.56-2.18c-2.47-1.47-3.71-2.48-3.71-5.6H180c0,3.12-.94,4.32-3.25,5.56a31,31,0,0,1-5.53,2.38l2.7,2.19A25.25,25.25,0,0,0,178.31,17.76Zm6.95,7.91a8.08,8.08,0,0,0-6.18-.08,7.23,7.23,0,0,0-3.71,3.53,7.09,7.09,0,0,0-.46,4.45,6.3,6.3,0,0,0,2.19,3.62A7.35,7.35,0,0,0,182,38.83a7.63,7.63,0,0,0,4.93-1.58,6.15,6.15,0,0,0,2.27-3.55,7.51,7.51,0,0,0-.48-4.58A6.88,6.88,0,0,0,185.26,25.67Zm-.77,8.79A3.18,3.18,0,0,1,182,35.57a3,3,0,0,1-2.44-1.14,4.53,4.53,0,0,1,0-5.17A2.93,2.93,0,0,1,182,28.15a3.16,3.16,0,0,1,2.58,1.17,4.13,4.13,0,0,1,.85,2.65A3.63,3.63,0,0,1,184.49,34.46Zm.18-13.75V17.48h-4.53v3.23H169.62v3.43h25.72V20.71Z"/><path class="cls-7" d="M207.89,35.64h14.85v3.17H205.23a3.37,3.37,0,0,1-2.16-.65,2.45,2.45,0,0,1-.83-1.95v-5h15.64V30.15H202.24V27h7.64V25.24H199.36V21.87h25.71v3.37H214.41V27h8.05V34.4H206.81A1,1,0,0,0,207.89,35.64ZM220.41,21a23.8,23.8,0,0,1-4-1.1,9,9,0,0,1-4.23-2.75,9.54,9.54,0,0,1-4.29,2.78,21.8,21.8,0,0,1-3.09.88l-3.41-2.28c.35-.07,1.42-.33,1.77-.42a18.29,18.29,0,0,0,3.46-1.21A11.5,11.5,0,0,0,209,15.41a2.61,2.61,0,0,0,1-1.33h-7.65V10.7h7.65V9.25h4.53V10.7h7.92v3.38h-7.92a2.25,2.25,0,0,0,.84,1.36,8.71,8.71,0,0,0,2.19,1.49A16.62,16.62,0,0,0,221,18.16c.71.16,1.82.32,2.57.41Z"/><path class="cls-7" d="M133.23,20.43v3.34H122.56v3.41h8.05V38.75H126V30.52H110.38V27.18h7.5V23.77H107.53V20.43Z"/><polygon class="cls-7" points="110.39 9.26 110.39 12.61 125.85 12.61 125.85 19.72 130.47 19.72 130.47 9.26 110.39 9.26"/><path class="cls-7" d="M241.86,35.47h13.58v3.34H239.35a3,3,0,0,1-2.16-.74,3.13,3.13,0,0,1-.81-2.32V29.26H241v5.27C241,35.19,241.24,35.47,241.86,35.47Z"/><path class="cls-7" d="M247.67,12.86V9.52h-17v3.34h3v9h-3v3.34h17V21.84h-2.57v-9Zm-7.13,9H238.2v-9h2.34Z"/><polygon class="cls-7" points="250.68 9.21 255.26 9.21 255.26 17.34 258.56 17.34 258.56 20.8 255.26 20.8 255.26 30.9 250.68 30.9 250.68 9.21"/></g></g></svg>